<svg xmlns="http://www.w3.org/2000/svg" xmlns:xlink="http://www.w3.org/1999/xlink" version="1.1" id="Vrstva_1" x="0px" y="0px" viewBox="712 -93.1 2035.4 978.1" style="enable-background:new 712 -93.1 2035.4 978.1;" xml:space="preserve">
<style type="text/css">
	.st0{fill:url(#SVGID_1_);}
	.st1{fill:url(#SVGID_2_);}
	.st2{fill:url(#SVGID_3_);}
	.st3{fill:#FBFDFF;}
	.st4{display:none;}
	.st5{display:inline;fill:#848484;}
</style>

<g id="Vrstva_1_1_">
	<g>
		<g>
			
				<linearGradient id="SVGID_1_" gradientUnits="userSpaceOnUse" x1="1029.5034" y1="108.1045" x2="1477.1974" y2="419.3691" gradientTransform="matrix(1 0 0 -1 0 791.804)">
				<stop offset="0" style="stop-color:#5ABC8F"/>
				<stop offset="0.2322" style="stop-color:#539F95"/>
				<stop offset="0.5118" style="stop-color:#425F8B"/>
				<stop offset="0.7583" style="stop-color:#283986"/>
				<stop offset="0.9763" style="stop-color:#030145"/>
			</linearGradient>
			<path class="st0" d="M1377.5,334.9c28.8,7.2,57.6,32.3,76.9,50.2c48.4,44.7,17.1,94.3-53.5,157.2     c-70.9,63.1-175.7,121.5-217.3,133.7c-83.1,24.4-151.7-21.8-172.2-102C1112.7,553.3,1326.8,405.7,1377.5,334.9L1377.5,334.9z"/>
			
				<linearGradient id="SVGID_2_" gradientUnits="userSpaceOnUse" x1="1020.1744" y1="724.1039" x2="1472.7906" y2="489.8076" gradientTransform="matrix(1 0 0 -1 0 791.804)">
				<stop offset="3.320000e-02" style="stop-color:#B2585B"/>
				<stop offset="0.2654" style="stop-color:#AE555C"/>
				<stop offset="0.5213" style="stop-color:#9D4B61"/>
				<stop offset="0.7488" style="stop-color:#8D4DA1"/>
				<stop offset="1" style="stop-color:#8655BF"/>
			</linearGradient>
			<path class="st1" d="M1133.4,44.3c41.4-10.8,110.5,15.4,167.2,48.5c62.4,36.4,123.8,70.8,137.1,123.7     c11.3,71.3,24.6,134,40.1,209c-18-42-123-96.7-230.7-148.8c-85.1-41.2-126.4-62.7-220.7-107     C1038.5,120.2,1056.9,58.5,1133.4,44.3L1133.4,44.3z"/>
			
				<linearGradient id="SVGID_3_" gradientUnits="userSpaceOnUse" x1="1023.3432" y1="750.5543" x2="917.8112" y2="152.0528" gradientTransform="matrix(1 0 0 -1 0 791.804)">
				<stop offset="0" style="stop-color:#EDA150"/>
				<stop offset="0.2701" style="stop-color:#D1C768"/>
				<stop offset="0.4929" style="stop-color:#96AE62"/>
				<stop offset="0.7725" style="stop-color:#77B667"/>
				<stop offset="1" style="stop-color:#318D31"/>
			</linearGradient>
			<path class="st2" d="M1100.5,54.9c-3.9,4.5-11.1,8.9-15,13.4c-36.7,37.4-53.9,99-63.5,160.5C995.3,399,982,589.7,1080.4,668.4     c-201.2-98.3-271.5-86-270.8-324.3c0.2-62.9,9.2-112.3,35.1-155.5C878.2,132.9,917.7,127.4,1100.5,54.9L1100.5,54.9z"/>
		</g>
		
	</g>
</g>


</svg>